<svg xmlns="http://www.w3.org/2000/svg" width="36.972" height="36.972" viewBox="0 0 36.972 36.972">
  <g id="Group_570" data-name="Group 570" transform="translate(-116.745 -657)">
    <g id="back-arrow-3095" transform="translate(114.781 655.036)">
      <g id="Group_408" data-name="Group 408" transform="translate(1.964 1.964)">
        <path id="Path_167" data-name="Path 167" d="M18.486,36.972A18.486,18.486,0,1,0,0,18.486,18.507,18.507,0,0,0,18.486,36.972Zm0-34.1a15.61,15.61,0,1,1-15.61,15.61A15.628,15.628,0,0,1,18.486,2.876Z" fill="#6777ef"/>
        <path id="Path_168" data-name="Path 168" d="M100.893,85.552A1.438,1.438,0,0,0,101.91,83.1l-5.949-5.949L101.91,71.2a1.438,1.438,0,0,0-2.033-2.033l-6.965,6.966a1.437,1.437,0,0,0,0,2.033l6.965,6.966A1.434,1.434,0,0,0,100.893,85.552Z" transform="translate(-78.924 -58.662)" fill="#6777ef"/>
      </g>
    </g>
  </g>
</svg>
