<svg xmlns="http://www.w3.org/2000/svg" width="91.862" height="107.244" viewBox="0 0 91.862 107.244">
  <g id="delete" transform="translate(107.96 126.036)">
    <g id="Group_569" data-name="Group 569" transform="translate(-107.96 -126.036)">
      <path id="Path_185" data-name="Path 185" d="M98.259,125.994H50.169A9.559,9.559,0,0,1,40.636,117L35.845,35.158a2.384,2.384,0,0,1,2.38-2.523h71.982a2.384,2.384,0,0,1,2.38,2.523L107.793,117A9.56,9.56,0,0,1,98.259,125.994ZM40.751,37.4l4.644,79.322a4.787,4.787,0,0,0,4.775,4.5h48.09a4.789,4.789,0,0,0,4.776-4.5L107.679,37.4H40.751Z" transform="translate(-28.283 -18.75)" fill="#d13233"/>
      <path id="Path_186" data-name="Path 186" d="M107.556,37.4H20.46a2.383,2.383,0,0,1,0-4.766h87.1a2.383,2.383,0,0,1,0,4.766Z" transform="translate(-18.076 -18.75)" fill="#d13233"/>
      <path id="Path_187" data-name="Path 187" d="M116.948,18.651H83.45a2.384,2.384,0,0,1-2.383-2.383V9.446A9.457,9.457,0,0,1,90.513,0h19.371a9.457,9.457,0,0,1,9.447,9.446v6.822A2.383,2.383,0,0,1,116.948,18.651ZM85.833,13.884h28.731V9.446a4.684,4.684,0,0,0-4.679-4.679H90.513a4.684,4.684,0,0,0-4.679,4.679v4.439Z" transform="translate(-54.267)" fill="#d13233"/>
      <path id="Path_188" data-name="Path 188" d="M161.033,133c-.046,0-.094,0-.142,0a2.383,2.383,0,0,1-2.24-2.518L161.67,78.94a2.382,2.382,0,1,1,4.757.278l-3.017,51.537A2.382,2.382,0,0,1,161.033,133Z" transform="translate(-98.842 -44.065)" fill="#d13233"/>
      <path id="Path_189" data-name="Path 189" d="M80.526,133a2.383,2.383,0,0,1-2.377-2.244L75.132,79.217a2.383,2.383,0,1,1,4.758-.278l3.017,51.537a2.383,2.383,0,0,1-2.24,2.518C80.62,133,80.572,133,80.526,133Z" transform="translate(-50.855 -44.065)" fill="#d13233"/>
      <path id="Path_190" data-name="Path 190" d="M122.818,133a2.384,2.384,0,0,1-2.383-2.383V79.08a2.383,2.383,0,0,1,4.766,0v51.537A2.384,2.384,0,0,1,122.818,133Z" transform="translate(-76.886 -44.066)" fill="#d13233"/>
    </g>
  </g>
</svg>
