<svg xmlns="http://www.w3.org/2000/svg" width="99.243" height="52.231" viewBox="0 0 99.243 52.231">
    <g id="Group_569" data-name="Group 569" transform="translate(9271 -5749)">
        <path id="path32" d="M99.244-136.57H0v-1.49H99.244v1.49" transform="translate(-9271 5922.078)" fill="#ed1c24"/>
        <path id="path34" d="M204.082-375.908h6.042v24.085h-6.042v-24.085" transform="translate(-9445.036 6124.909)" fill="#231f20"/>
        <path id="path36" d="M284.148-363.868a11.758,11.758,0,0,1-.941,4.594,12.019,12.019,0,0,1-2.582,3.89,12.287,12.287,0,0,1-3.891,2.6,11.79,11.79,0,0,1-4.664.957H261.33v-15.042h6.039v9h4.707a5.327,5.327,0,0,0,2.638-.593,7.241,7.241,0,0,0,1.6-1.136,8.2,8.2,0,0,0,1.168-1.582,5.086,5.086,0,0,0,.629-2.661,5.52,5.52,0,0,0-.83-2.993,5.612,5.612,0,0,0-2.183-2.188,5.982,5.982,0,0,0-3.049-.851H261.33v-6.04h10.74a11.285,11.285,0,0,1,4.664.94,10.628,10.628,0,0,1,3.871,2.6,11.322,11.322,0,0,1,2.6,3.816,11.9,11.9,0,0,1,.941,4.68" transform="translate(-9493.855 6124.909)" fill="#231f20"/>
        <path id="path38" d="M432.516-351.824v-24.085h6.039v18.045H448.5v6.04H432.516" transform="translate(-9639.838 6124.909)" fill="#231f20"/>
        <path id="path40" d="M569.328-351.824a10.332,10.332,0,0,1-4.032-.685,15.906,15.906,0,0,1-2.6-1.36,15.765,15.765,0,0,1-2.241-1.9,10.774,10.774,0,0,1-2.209-3.456,11.622,11.622,0,0,1-.957-4.647,12.153,12.153,0,0,1,.218-2.349,14.388,14.388,0,0,1,.922-2.782,10.886,10.886,0,0,1,2.4-3.366,12.144,12.144,0,0,1,3.886-2.623,11.79,11.79,0,0,1,4.611-.922,10.261,10.261,0,0,1,2.46.256,10.4,10.4,0,0,1,2.387.8v7.227a5.943,5.943,0,0,0-4.862-2.239,5.847,5.847,0,0,0-2.994.833,5.971,5.971,0,0,0-2.213,2.159,5.9,5.9,0,0,0-.778,3.033,6.55,6.55,0,0,0,.18,1.565,6.761,6.761,0,0,0,.78,1.752,5.768,5.768,0,0,0,2.015,1.87,6.325,6.325,0,0,0,3.011.793,5.42,5.42,0,0,0,2.721-.615,5.405,5.405,0,0,0,2.141-1.913v7.52c-.436.2-.827.349-1.174.47a14.182,14.182,0,0,1-1.412.377,10.605,10.605,0,0,1-2.261.2" transform="translate(-9746.239 6124.909)" fill="#231f20"/>
        <path id="path42" d="M17.871-315.836H0v-17.871H17.871v17.871" transform="translate(-9271 6088.92)" fill="#ed1c24"/>
        <path id="path44" d="M73.492-354.815H61.579v1.554H71.938v10.36h1.554v-11.914" transform="translate(-9323.513 6106.921)" fill="#231f20"/>
        <path id="path46" d="M111.833-375.912h-8.939v1.557h7.383v7.372h1.556v-8.929" transform="translate(-9358.745 6124.912)" fill="#231f20"/>
        <text id="Finance_Limited" data-name="Finance Limited" transform="translate(-9222 5781)" fill="#231f20" font-size="7" font-family="Roboto-Medium, Roboto" font-weight="500"><tspan x="0" y="0">Finance Limited</tspan></text>
        <g id="Group_405" data-name="Group 405" transform="translate(-9269.856 5787.025)">
            <path id="path16" d="M408.084-63.283c-.138-.3-.48-.177-.707-.134s-.44.355-.433.258c.057-.7,1.1-1.544,1.533-1.938s1.031-.6,1.131-.158S408.222-62.983,408.084-63.283Zm-3.807,4.576a4.739,4.739,0,0,1,1.215-2.956C405.592-61.749,404.941-59.189,404.277-58.707Zm-2.123-4.576c-.136-.3-.478-.177-.706-.134s-.44.355-.432.258c.054-.7,1.1-1.544,1.532-1.938s1.031-.6,1.131-.158S402.293-62.983,402.154-63.283Zm-3.8,4.576a4.753,4.753,0,0,1,1.216-2.956C399.667-61.749,399.015-59.189,398.351-58.707Zm-3.842-4.159c-.4-.247.112-.844.864-1.632a1.883,1.883,0,0,1,1.8-.591C397.5-65.039,394.838-62.665,394.509-62.866Zm27.336-1.6c-.484.394-1.452,1.436-1.683,1.387s-.113-.686-.073-1.177.037-1.462-.576-1.478-1.91,1.288-2.212,1.362.5-.663-.456-1.4c-.262-.2-.583.226-1.382.853l-.24.13c-.463.4-1.965,1.727-2.109,1.489-.109-.178.383-1.277.457-1.655s.243-.719-.193-1.038c-.351-.257-.663.076-.879.281-.154.147-1.254.967-1.507,1.142-.464.319-1.062.925-1.2.852s.16-.13.471-.782.184-1.48-.154-1.656c-.78-.406-1.683.588-2.042.867a5.413,5.413,0,0,0-.651.643c-.113.08.073-.627.135-.931a.808.808,0,0,0-.283-.727c-.174-.175-.352-.068-.5.2a3.661,3.661,0,0,1-.986.957,18.044,18.044,0,0,1-1.927,1.428c-.181,0,.1-.229.5-.943a1.194,1.194,0,0,0-.059-1.4c-.149-.2-.664-.327-1.307.107s-1.409,1.317-1.51,1.308.1-.759.162-1.053-.247-.549-.354-.641-.321.009-.548.367a6.007,6.007,0,0,1-1.206,1.053c-.807.615-1.5,1.59-1.711,1.457-.111-.068-.2-.667.46-1.595.128-.179.24-.811-.157-.891-.36-.072-.517.494-.721.5s.107-.474-.294-.671c-.283-.14-1.015-.131-2.776,1.543-.4.377-1.17,2.006-.22,2.416s1.856-1.317,2.914-1.931c.127-.075-.141.457.024.9s.66.879,1.463.06a23.094,23.094,0,0,1,2.062-1.934,8.309,8.309,0,0,1-.616,2.34,25.627,25.627,0,0,0-1.975,3.192,1.826,1.826,0,0,0,.253,1.7c.116.166.575.09.869-.44a21.282,21.282,0,0,0,.962-2.264,16.652,16.652,0,0,1,.752-2.041c.162-.19.266.43.594.482a4.209,4.209,0,0,0,2.131-.754,18.076,18.076,0,0,0,2.286-1.661c.285-.266.686-.728.712-.535a15.6,15.6,0,0,1-.567,2.04c-.154.493-.351.6-.725,1.111a15.582,15.582,0,0,0-1.374,2.544c-.236.634.057,1.734.578,1.623s1.035-1.478,1.191-1.877,1.007-2.79,1.111-2.972c.074-.13.2.268.506.443a4.776,4.776,0,0,0,1.987-.529c.648-.308,2.656-1.95,2.845-2.062s.591-.453.648-.268c.092.295-.873,1.588-.331,2.56.433.778,2.4-1.217,2.779-1.516.324-.257,1.289-1.083,1.222-.893a3.026,3.026,0,0,1-.521.972c-.34.433-.7,1.2-.123,1.587.18.121,1.263-1.071,1.859-1.536s1.348-1.266,1.451-.957-.167,2.01.49,2.4,1.27-.329,1.819-.833.945-1.649.459-1.254" transform="translate(-336.368 70.939)" fill="#5a5758"/>
            <path id="path18" d="M358.994-91.5c-.12-.093-.513.248-.74.48a7.16,7.16,0,0,1-1.028.916c-.105.008-.113-.231-.074-.431s.215-.818.3-1.266.062-.647-.182-.782c-.409-.229-.874-.137-1.582.367a13.4,13.4,0,0,0-1.458,1.484c-.087-.033-.007-.132.082-.348a8.7,8.7,0,0,1,.877-1.765,14.5,14.5,0,0,0,1.667-2.742,4.14,4.14,0,0,0,.346-1.384c.009-.421-.342-.752-.591-.62a12.537,12.537,0,0,0-1.271,2.135c-.259.482-1.208,2.729-1.315,2.969a5.51,5.51,0,0,1-.88.947.883.883,0,0,0-.329.7c-.014.34.343.111.482-.027a5.254,5.254,0,0,1-.4,1.146c-.178.514.191.849.328.755s.431-.513.884-1.037,1.544-1.412,1.816-1.671c.192-.181.548-.376.57-.1a6.581,6.581,0,0,1-.165,1.365c-.136.821.1,1.045.426,1.227s.77-.338.94-.493a7.5,7.5,0,0,1,.868-.73c.332-.218.554-1.005.434-1.1" transform="translate(-301.471 97.619)" fill="#5a5758"/>
            <path id="path20" d="M591.16-67.284c.393-.2.782-.36.826-.259.07.159-.329.353-.6.586s-.76.767-.914.641C590.366-66.4,590.767-67.08,591.16-67.284Zm2.757.372a11.9,11.9,0,0,1-1.452,1.138,4.741,4.741,0,0,1-2.164.953c-.421.05-.235-.386-.2-.562.23-.139.677-.522,1.054-.769a12.324,12.324,0,0,0,1.561-1.244c.162-.213.2-.745-.887-.732-1.542.018-2.146,1.608-2.3,2.229-.042.172-.17.145-.232.325s-.035.36.053.4.127.007.193.313a1.049,1.049,0,0,0,1.428.675,10.313,10.313,0,0,0,2.288-1.451c.785-.61,1.69-1.852,1.745-1.725a1.75,1.75,0,0,1-.117,1.481c-.39.749-.555.934-.814.943s-.209-.256-.617-.1-.544.458-.376.791.644.734,1.613.058a30.435,30.435,0,0,0,2.486-1.825,16.3,16.3,0,0,1,1.374-1.35,1.661,1.661,0,0,1-.117,1.481c-.39.749-.554.934-.814.943s-.209-.256-.617-.1-.544.458-.377.791.644.734,1.613.058,2.027-1.456,2.486-1.825c.7-.561.626-.791.487-1.036-.1-.186-.413.229-.413.229a13.253,13.253,0,0,1-1.4,1.146c-.285.193-.029-.28.035-.914a3.022,3.022,0,0,0-.61-1.949c-.274-.166-.417-.02-.574.442a4.121,4.121,0,0,1-.785,1.179c-.355.3-1.614,1.242-1.614,1.242-.285.193-.03-.28.036-.914a3.039,3.039,0,0,0-.612-1.949c-.274-.166-.417-.02-.573.442a4.122,4.122,0,0,1-.786,1.179" transform="translate(-503.507 72.822)" fill="#5a5758"/>
            <path id="path22" d="M107.716-61.6c-.4-.247.112-.844.865-1.632a1.881,1.881,0,0,1,1.8-.591C110.705-63.774,108.045-61.4,107.716-61.6Zm11.4-1.6c-.486.394-1.453,1.436-1.684,1.387s-.114-.686-.072-1.177.035-1.462-.578-1.478-1.908,1.288-2.209,1.362.5-.663-.459-1.4c-.261-.2-.582.226-1.382.853s-1.5,1.59-1.71,1.457c-.111-.068-.2-.667.46-1.595.127-.179.239-.811-.157-.891-.362-.072-.517.494-.721.5s.105-.474-.294-.671c-.283-.14-1.016-.131-2.777,1.543-.4.377-1.169,2.006-.22,2.416s1.857-1.317,2.914-1.931c.128-.075-.139.457.024.9s.661.879,1.464.06a10.006,10.006,0,0,1,1.966-1.707,3.047,3.047,0,0,1-.522.972c-.339.433-.7,1.2-.121,1.587.179.121,1.263-1.071,1.858-1.536s1.348-1.266,1.451-.957-.167,2.01.49,2.4,1.27-.329,1.818-.833.946-1.649.46-1.254" transform="translate(-91.311 69.675)" fill="#5a5758"/>
            <path id="path26" d="M2.891-87.459A7.178,7.178,0,0,1,.962-84.237c-.143.119.219-1.018.368-1.415s.83-3.239,1.184-3.091a.989.989,0,0,1,.377,1.284ZM15.307-91c-.486.394-1.453,1.436-1.683,1.387s-.115-.686-.073-1.177.035-1.462-.578-1.478-1.908,1.288-2.209,1.362.5-.663-.457-1.4c-.262-.2-.583.226-1.383.853l-.239.13c-.464.4-1.965,1.727-2.111,1.489-.108-.178.383-1.277.459-1.655s.242-.719-.193-1.038c-.351-.257-.664.076-.877.281-.155.147-1.255.967-1.51,1.142-.463.319-1.324,1.113-1.464,1.04a11.583,11.583,0,0,1,.964-2.476c.364-.869.876-1.482,1.306-2.537S5.6-97.3,5.209-97.433s-.694.991-1.019,1.8A30.137,30.137,0,0,1,3.12-92.7c-.283.379-1.514,1.683-1.749,1.968s-.151.706.046.67.7-.848,1.02-.921c.244-.056-.444,1.336-.808,1.531-.135.073-.248.2-.028.287s.111.189-.067.447S.5-85.774.285-85.069s-.528,1.727.051,1.8,2.271-2.2,3.008-3.4a1.665,1.665,0,0,0-.109-2.169c-.223-.344-.391-.325-.194-.51.651-.509,2.325-1.806,2.514-1.918s.591-.453.648-.268c.092.295-.873,1.588-.331,2.56.433.778,2.4-1.217,2.779-1.516.323-.257,1.288-1.083,1.224-.893a3.106,3.106,0,0,1-.522.972c-.34.433-.7,1.2-.123,1.587.179.121,1.265-1.071,1.858-1.536s1.347-1.266,1.451-.957-.167,2.01.49,2.4,1.27-.329,1.818-.833.946-1.649.46-1.254" transform="translate(-0.003 97.469)" fill="#5a5758"/>
            <path id="path30" d="M208.141-58.048c-.2.061-.036-.9.462-1.517s1.368-1.38,2.062-1.267A5.432,5.432,0,0,1,208.141-58.048Zm.862-4.2c-.177-.4,2.4-2.436,2.692-2.083C211.928-64.047,209.181-61.851,209-62.249Zm3.756-2.89c-.143-.138-.266.267-.383.229s0-.4-.252-.457a5.715,5.715,0,0,0-2.042.718A6.11,6.11,0,0,0,208.69-63.4c.127-.328.118-.547-.139-.34-.486.394-1.454,1.436-1.683,1.387s-.115-.686-.072-1.177.034-1.462-.579-1.478-1.908,1.288-2.209,1.362.5-.663-.457-1.4c-.262-.2-.583.226-1.382.853l-.24.13c-.464.4-1.965,1.727-2.111,1.489-.108-.177.383-1.277.46-1.655s.24-.719-.194-1.038c-.351-.257-.663.076-.877.281-.155.147-1.254.967-1.51,1.142-.463.319-1.046.765-1.477,1.036a5.611,5.611,0,0,1-.881.512c-.71.252-1.274.414-1.127-.213A2.529,2.529,0,0,1,194.994-64c.491-.46,1.178-.958,1.65-.5.145.138.682-.267.5-.629a.631.631,0,0,0-.795-.4,3.3,3.3,0,0,0-2.263,1.522c-.629,1.092-.876,1.849.077,2.5.2.14,1,.129,2.144-.54A17.01,17.01,0,0,0,198.8-64c.188-.111.591-.453.648-.268.092.295-.873,1.588-.331,2.56.433.778,2.4-1.217,2.779-1.516.324-.257,1.288-1.083,1.224-.893a3.106,3.106,0,0,1-.522.972c-.34.433-.7,1.2-.123,1.587.179.121,1.265-1.071,1.858-1.536s1.348-1.266,1.451-.957-.167,2.01.49,2.4c.614.362,1.188-.239,1.709-.732.045.294.3-.063.358.034s.005.835.625.786a7.919,7.919,0,0,0,2.127-1.416,2.8,2.8,0,0,1,.806-.632c.162-.042-.432,1.423-.7,1.865-.2.333-.966-.248-2.714,1.694-.593.657-1.332,2.627-.466,2.95s2.87-2.7,3.1-3.133.275-.7.467-.621.753.3.8-.184a.753.753,0,0,0-.436-.671c.143-.427.6-1.877.764-2.161s.356-.965.046-1.264" transform="translate(-165.371 70.21)" fill="#5a5758"/>
        </g>
    </g>
</svg>
